#Comment line ignore any data following # character 
#Hierarchical Translation and Rotation (.htr) file 
[Header]	
#Header keywords are followed by a single value 
FileType HTR		#Single word string
DataType HTRS		#Translation followed by rotation and scale data
FileVersion 1		#integer
NumSegments 64		#integer
NumFrames 3		#integer
DataFrameRate 30		#integer, data frame rate in this file
EulerRotationOrder ZYX
CalibrationUnits mm
RotationUnits Degrees
GlobalAxisofGravity Y
BoneLengthAxis Y
ScaleFactor 1.00
[SegmentNames&Hierarchy]
#CHILD	PARENT
Pinger_Root GLOBAL
Pelvis Pinger_Root
L_Hip Pelvis
R_Hip Pelvis
Rear_Leg01 Pelvis
Spine1 Pelvis
L_Leg01 L_Hip
L_Leg02 L_Leg01
L_Leg03 L_Leg02
L_Foot L_Leg03
L_Toe1_01 L_Foot
L_Toe2_01 L_Foot
L_Toe3_01 L_Foot
planeAlignerLeft L_Foot
L_Toe1_02 L_Toe1_01
L_Toe1_03 L_Toe1_02
L_Toe2_02 L_Toe2_01
L_Toe2_03 L_Toe2_02
L_Toe3_02 L_Toe3_01
L_Toe3_03 L_Toe3_02
planeLockWeightLeft planeAlignerLeft
R_Leg01 R_Hip
R_Leg02 R_Leg01
R_Leg03 R_Leg02
R_Foot R_Leg03
planeAlignerRight R_Foot
R_Toe1_01 R_Foot
R_Toe2_01 R_Foot
R_Toe3_01 R_Foot
planeLockWeightRight planeAlignerRight
R_Toe1_02 R_Toe1_01
R_Toe1_03 R_Toe1_02
R_Toe2_02 R_Toe2_01
R_Toe2_03 R_Toe2_02
R_Toe3_02 R_Toe3_01
R_Toe3_03 R_Toe3_02
Rear_Leg02 Rear_Leg01
Rear_Leg03 Rear_Leg02
Rear_Leg04 Rear_Leg03
Rear_Foot Rear_Leg04
planeAlignerCenter Rear_Foot
Rear_Toe1_01 Rear_Foot
Rear_Toe2_01 Rear_Foot
Rear_Toe3_01 Rear_Foot
planeLockWeightCenter planeAlignerCenter
Rear_Toe1_02 Rear_Toe1_01
Rear_Toe1_03 Rear_Toe1_02
Rear_Toe2_02 Rear_Toe2_01
Rear_Toe2_03 Rear_Toe2_02
Rear_Toe3_02 Rear_Toe3_01
Rear_Toe3_03 Rear_Toe3_02
Back_Bone Spine1
Head Spine1
Motor_Bone Back_Bone
Ping_Mechanism Back_Bone
BN_LookIK Head
bottomMouth Head
L_Mouth01 Head
L_mouthFront Head
mouthGun Head
R_Mouth01 Head
R_mouthFront Head
TopMouth Head
weapon_bone Head
[BasePosition]
#SegmentName Tx, Ty, Tz, Rx, Ry, Rz, BoneLength
Pinger_Root 0.000000 0.000000 0.000000 -90.000000 0.000000 0.000000 10.000000 
Pelvis 0.000000 0.000000 0.000000 0.000000 0.000000 0.000000 10.000000 
L_Hip 0.000000 0.000000 0.000000 0.000000 0.000000 0.000000 10.000000 
R_Hip 0.000000 0.000000 0.000000 0.000000 0.000000 0.000000 10.000000 
Rear_Leg01 0.000000 0.000000 0.000000 0.000000 0.000000 0.000000 10.000000 
Spine1 0.000000 0.000000 0.000000 0.000000 0.000000 0.000000 10.000000 
L_Leg01 0.000000 0.000000 0.000000 0.000000 0.000000 0.000000 10.000000 
L_Leg02 0.000000 0.000000 0.000000 0.000000 0.000000 0.000000 10.000000 
L_Leg03 0.000000 0.000000 0.000000 0.000000 0.000000 0.000000 10.000000 
L_Foot 0.000000 0.000000 0.000000 0.000000 0.000000 0.000000 10.000000 
L_Toe1_01 0.000000 0.000000 0.000000 0.000000 0.000000 0.000000 10.000000 
L_Toe2_01 0.000000 0.000000 0.000000 0.000000 0.000000 0.000000 10.000000 
L_Toe3_01 0.000000 0.000000 0.000000 0.000000 0.000000 0.000000 10.000000 
planeAlignerLeft 0.000000 0.000000 0.000000 0.000000 0.000000 0.000000 10.000000 
L_Toe1_02 0.000000 0.000000 0.000000 0.000000 0.000000 0.000000 10.000000 
L_Toe1_03 0.000000 0.000000 0.000000 0.000000 0.000000 0.000000 10.000000 
L_Toe2_02 0.000000 0.000000 0.000000 0.000000 0.000000 0.000000 10.000000 
L_Toe2_03 0.000000 0.000000 0.000000 0.000000 0.000000 0.000000 10.000000 
L_Toe3_02 0.000000 0.000000 0.000000 0.000000 0.000000 0.000000 10.000000 
L_Toe3_03 0.000000 0.000000 0.000000 0.000000 0.000000 0.000000 10.000000 
planeLockWeightLeft 0.000000 0.000000 0.000000 0.000000 0.000000 0.000000 10.000000 
R_Leg01 0.000000 0.000000 0.000000 0.000000 0.000000 0.000000 10.000000 
R_Leg02 0.000000 0.000000 0.000000 0.000000 0.000000 0.000000 10.000000 
R_Leg03 0.000000 0.000000 0.000000 0.000000 0.000000 0.000000 10.000000 
R_Foot 0.000000 0.000000 0.000000 0.000000 0.000000 0.000000 10.000000 
planeAlignerRight 0.000000 0.000000 0.000000 0.000000 0.000000 0.000000 10.000000 
R_Toe1_01 0.000000 0.000000 0.000000 0.000000 0.000000 0.000000 10.000000 
R_Toe2_01 0.000000 0.000000 0.000000 0.000000 0.000000 0.000000 10.000000 
R_Toe3_01 0.000000 0.000000 0.000000 0.000000 0.000000 0.000000 10.000000 
planeLockWeightRight 0.000000 0.000000 0.000000 0.000000 0.000000 0.000000 10.000000 
R_Toe1_02 0.000000 0.000000 0.000000 0.000000 0.000000 0.000000 10.000000 
R_Toe1_03 0.000000 0.000000 0.000000 0.000000 0.000000 0.000000 10.000000 
R_Toe2_02 0.000000 0.000000 0.000000 0.000000 0.000000 0.000000 10.000000 
R_Toe2_03 0.000000 0.000000 0.000000 0.000000 0.000000 0.000000 10.000000 
R_Toe3_02 0.000000 0.000000 0.000000 0.000000 0.000000 0.000000 10.000000 
R_Toe3_03 0.000000 0.000000 0.000000 0.000000 0.000000 0.000000 10.000000 
Rear_Leg02 0.000000 0.000000 0.000000 0.000000 0.000000 0.000000 10.000000 
Rear_Leg03 0.000000 0.000000 0.000000 0.000000 0.000000 0.000000 10.000000 
Rear_Leg04 0.000000 0.000000 0.000000 0.000000 0.000000 0.000000 10.000000 
Rear_Foot 0.000000 0.000000 0.000000 0.000000 0.000000 0.000000 10.000000 
planeAlignerCenter 0.000000 0.000000 0.000000 0.000000 0.000000 0.000000 10.000000 
Rear_Toe1_01 0.000000 0.000000 0.000000 0.000000 0.000000 0.000000 10.000000 
Rear_Toe2_01 0.000000 0.000000 0.000000 0.000000 0.000000 0.000000 10.000000 
Rear_Toe3_01 0.000000 0.000000 0.000000 0.000000 0.000000 0.000000 10.000000 
planeLockWeightCenter 0.000000 0.000000 0.000000 0.000000 0.000000 0.000000 10.000000 
Rear_Toe1_02 0.000000 0.000000 0.000000 0.000000 0.000000 0.000000 10.000000 
Rear_Toe1_03 0.000000 0.000000 0.000000 0.000000 0.000000 0.000000 10.000000 
Rear_Toe2_02 0.000000 0.000000 0.000000 0.000000 0.000000 0.000000 10.000000 
Rear_Toe2_03 0.000000 0.000000 0.000000 0.000000 0.000000 0.000000 10.000000 
Rear_Toe3_02 0.000000 0.000000 0.000000 0.000000 0.000000 0.000000 10.000000 
Rear_Toe3_03 0.000000 0.000000 0.000000 0.000000 0.000000 0.000000 10.000000 
Back_Bone 0.000000 0.000000 0.000000 0.000000 0.000000 0.000000 10.000000 
Head 0.000000 0.000000 0.000000 0.000000 0.000000 0.000000 10.000000 
Motor_Bone 0.000000 0.000000 0.000000 0.000000 0.000000 0.000000 10.000000 
Ping_Mechanism 0.000000 0.000000 0.000000 0.000000 0.000000 0.000000 10.000000 
BN_LookIK 0.000000 0.000000 0.000000 0.000000 0.000000 0.000000 10.000000 
bottomMouth 0.000000 0.000000 0.000000 0.000000 0.000000 0.000000 10.000000 
L_Mouth01 0.000000 0.000000 0.000000 0.000000 0.000000 0.000000 10.000000 
L_mouthFront 0.000000 0.000000 0.000000 0.000000 0.000000 0.000000 10.000000 
mouthGun 0.000000 0.000000 0.000000 0.000000 0.000000 0.000000 10.000000 
R_Mouth01 0.000000 0.000000 0.000000 0.000000 0.000000 0.000000 10.000000 
R_mouthFront 0.000000 0.000000 0.000000 0.000000 0.000000 0.000000 10.000000 
TopMouth 0.000000 0.000000 0.000000 0.000000 0.000000 0.000000 10.000000 
weapon_bone 0.000000 0.000000 0.000000 0.000000 0.000000 0.000000 10.000000 
#Beginning of Data. Separated by tabs
#Fr	Tx	Ty	Tz	Rx	Ry	Rz	SF
[Pinger_Root]
482 0.000000 -5345.781738 0.000000 -0.000075 -0.000000 -0.000020 5345.781738
483 0.000000 -5354.293945 0.000000 -0.000075 -0.000000 -0.000020 5354.293945
484 0.000000 -5362.805176 0.000000 -0.000075 -0.000000 -0.000020 5362.805664
[Pelvis]
482 1438.853638 20578.572266 7057.695313 -172.888565 -86.805611 160.018723 21802.728516
483 1438.851196 20587.060547 7057.679688 -172.940002 -86.802483 160.071564 21810.736328
484 1438.848999 20595.548828 7057.664063 -172.991302 -86.799179 160.124207 21818.742188
[L_Hip]
482 5.766392 125.831482 872.656799 160.158691 -45.484894 122.312202 881.701050
483 5.766392 125.831482 872.656799 160.158691 -45.484905 122.312202 881.701050
484 5.766392 125.831482 872.656799 160.158691 -45.484905 122.312202 881.701050
[R_Hip]
482 5.765438 125.836372 -872.654907 38.087841 49.812687 125.703735 881.699829
483 5.765438 125.836372 -872.654907 38.087841 49.812687 125.703735 881.699829
484 5.765438 125.836372 -872.654907 38.087841 49.812687 125.703735 881.699829
[Rear_Leg01]
482 -192.298416 -925.602966 -0.001907 169.674026 1.925831 -159.793747 945.367432
483 -192.298416 -925.602966 -0.001907 169.673370 1.924405 -159.791916 945.367432
484 -192.298416 -925.602966 -0.001907 169.672729 1.922980 -159.790085 945.367432
[Spine1]
482 290.604584 5.007505 0.000477 7.251496 -0.553961 19.215569 290.647736
483 290.604584 5.007505 0.000477 7.252780 -0.550376 19.217140 290.647736
484 290.604584 5.007505 0.000477 7.254066 -0.546786 19.218716 290.647736
[L_Leg01]
482 761.932007 -0.002384 -0.069261 22.761097 -15.698445 -9.028792 761.932068
483 761.932007 -0.002384 -0.069261 22.764069 -15.697235 -9.024895 761.932068
484 761.932007 -0.002384 -0.069261 22.767038 -15.696019 -9.020994 761.932068
[L_Leg02]
482 1441.140503 -0.000954 -0.000715 2.593184 -0.186102 -128.878784 1441.140503
483 1441.140503 -0.000954 -0.000715 2.594857 -0.186242 -128.896790 1441.140503
484 1441.140503 -0.000954 -0.000715 2.596531 -0.186383 -128.914795 1441.140503
[L_Leg03]
482 1686.963989 -0.000715 -0.000954 -0.029947 0.014713 118.116539 1686.963989
483 1686.963989 -0.000715 -0.000954 -0.029947 0.014713 118.115776 1686.963989
484 1686.963989 -0.000715 -0.000954 -0.029948 0.014713 118.114998 1686.963989
[L_Foot]
482 3041.570068 -30.715107 11.297464 1.850974 13.089993 55.383884 3041.746094
483 3041.570068 -30.715107 11.297464 1.855101 13.089413 55.388775 3041.746094
484 3041.570068 -30.715107 11.297464 1.859227 13.088833 55.393661 3041.746094
[L_Toe1_01]
482 -188.216690 -224.732346 -21.137953 93.718819 -7.010165 -172.003052 293.899567
483 -188.216690 -224.732346 -21.137953 93.719055 -7.001647 -172.001343 293.899567
484 -188.216690 -224.732346 -21.137953 93.719284 -6.993128 -171.999619 293.899567
[L_Toe2_01]
482 200.746536 -219.926590 148.838394 -90.023705 -26.461399 -52.593014 332.896027
483 200.746536 -219.926590 148.838394 -90.024841 -26.446972 -52.600555 332.896027
484 200.746536 -219.926590 148.838394 -90.025963 -26.432541 -52.608078 332.896027
[L_Toe3_01]
482 188.832520 -219.859131 -191.078659 -99.731087 13.783159 -67.512604 347.140900
483 188.832520 -219.859131 -191.078659 -99.737328 13.788971 -67.529289 347.140900
484 188.832520 -219.859131 -191.078659 -99.743561 13.794790 -67.545998 347.140900
[planeAlignerLeft]
482 0.812531 -811.448792 -0.314951 0.000000 -90.000000 -90.001900 811.449280
483 0.812531 -811.448792 -0.314951 0.000000 -90.000000 -90.001900 811.449280
484 0.812531 -811.448792 -0.314951 0.000000 -90.000000 -90.001900 811.449280
[L_Toe1_02]
482 413.761139 0.000477 0.000000 0.001384 -25.940048 0.001384 413.761139
483 413.761139 0.000477 0.000000 0.001384 -25.940002 0.001384 413.761139
484 413.761139 0.000477 0.000000 0.001384 -25.939953 0.001384 413.761139
[L_Toe1_03]
482 464.317322 0.000358 -0.000089 0.003710 53.119747 0.003710 464.317322
483 464.317322 0.000358 -0.000089 0.003712 53.139965 0.003712 464.317322
484 464.317322 0.000358 -0.000089 0.003714 53.160149 0.003714 464.317322
[L_Toe2_02]
482 342.235809 -0.000477 0.000238 0.001187 -72.527992 0.001187 342.235809
483 342.235809 -0.000477 0.000238 0.001187 -72.523964 0.001187 342.235809
484 342.235809 -0.000477 0.000238 0.001187 -72.519920 0.001187 342.235809
[L_Toe2_03]
482 420.210846 -0.000715 0.000000 0.026454 85.557495 0.026739 420.210846
483 420.210846 -0.000715 0.000000 0.026850 85.543900 0.027100 420.210846
484 420.210846 -0.000715 0.000000 0.027244 85.530426 0.027458 420.210846
[L_Toe3_02]
482 329.270111 0.000954 0.000000 0.001178 -80.640182 0.001178 329.270111
483 329.270111 0.000954 0.000000 0.001178 -80.631393 0.001178 329.270111
484 329.270111 0.000954 0.000000 0.001178 -80.622627 0.001178 329.270111
[L_Toe3_03]
482 439.137451 -0.001907 0.000954 -179.996170 78.191231 -179.992661 439.137451
483 439.137451 -0.001907 0.000954 -179.996170 78.205109 -179.992645 439.137451
484 439.137451 -0.001907 0.000954 -179.996155 78.218948 -179.992645 439.137451
[planeLockWeightLeft]
482 -0.000954 0.000238 -0.000305 -0.011826 -0.004376 0.005620 0.001029
483 -0.000954 0.000238 -0.000305 -0.011826 -0.004376 0.005620 0.001029
484 -0.000954 0.000238 -0.000305 -0.011826 -0.004376 0.005620 0.001029
[R_Leg01]
482 761.455627 -0.001907 -0.000358 122.840820 -14.727005 31.339336 761.455688
483 761.455627 -0.001907 -0.000358 122.839165 -14.713485 31.351255 761.455688
484 761.455627 -0.001907 -0.000358 122.837494 -14.699959 31.363176 761.455688
[R_Leg02]
482 1441.140625 0.000000 -0.000238 -0.636817 -0.095963 -127.259758 1441.140625
483 1441.140625 0.000000 -0.000238 -0.637048 -0.096113 -127.246727 1441.140625
484 1441.140625 0.000000 -0.000238 -0.637280 -0.096262 -127.233681 1441.140625
[R_Leg03]
482 1686.963989 0.000954 0.001431 0.066021 -0.033824 127.995232 1686.963989
483 1686.963989 0.000954 0.001431 0.066078 -0.033852 128.007645 1686.963989
484 1686.963989 0.000954 0.001431 0.066134 -0.033880 128.020081 1686.963989
[R_Foot]
482 3041.560059 -30.531288 -11.204481 -0.466059 -23.028090 59.323555 3041.734131
483 3041.560059 -30.531288 -11.204481 -0.466535 -23.028578 59.315037 3041.734131
484 3041.560059 -30.531288 -11.204481 -0.467012 -23.029064 59.306511 3041.734131
[planeAlignerRight]
482 -0.635147 -812.270569 -0.364304 0.000000 -89.960434 -90.005180 812.270874
483 -0.635147 -812.270569 -0.364304 0.000000 -89.960434 -90.005180 812.270874
484 -0.635147 -812.270569 -0.364304 0.000000 -89.960434 -90.005180 812.270874
[R_Toe1_01]
482 -188.383347 -224.864899 21.052242 76.759003 -0.297627 -173.553375 294.101532
483 -188.383347 -224.864899 21.052242 76.759094 -0.300247 -173.534882 294.101532
484 -188.383347 -224.864899 21.052242 76.759171 -0.302867 -173.516388 294.101532
[R_Toe2_01]
482 200.637817 -220.002121 -148.787384 -91.538795 33.278156 -58.580288 332.857574
483 200.637817 -220.002121 -148.787384 -91.543457 33.269150 -58.593857 332.857574
484 200.637817 -220.002121 -148.787384 -91.548134 33.260132 -58.607414 332.857574
[R_Toe3_01]
482 188.606735 -220.092957 191.126343 -73.307243 -8.451995 -73.006813 347.192566
483 188.606735 -220.092957 191.126343 -73.305382 -8.452054 -73.023788 347.192566
484 188.606735 -220.092957 191.126343 -73.303528 -8.452108 -73.040771 347.192566
[planeLockWeightRight]
482 -0.000477 0.000000 0.000000 -0.011823 -0.004379 -0.000027 0.000477
483 -0.000477 0.000000 0.000000 -0.011823 -0.004379 -0.000027 0.000477
484 -0.000477 0.000000 0.000000 -0.011823 -0.004379 -0.000027 0.000477
[R_Toe1_02]
482 413.762085 0.000477 -0.000119 0.001396 -24.488827 0.001396 413.762085
483 413.762085 0.000477 -0.000119 0.001395 -24.491116 0.001395 413.762085
484 413.762085 0.000477 -0.000119 0.001395 -24.493408 0.001395 413.762085
[R_Toe1_03]
482 464.317810 0.000000 0.001088 0.006898 70.407738 0.006898 464.317810
483 464.317810 0.000000 0.001088 0.006892 70.390015 0.006892 464.317810
484 464.317810 0.000000 0.001088 0.006886 70.372284 0.006886 464.317810
[R_Toe2_02]
482 342.234741 -0.000954 0.000238 0.001197 -67.522812 0.001197 342.234741
483 342.234741 -0.000954 0.000238 0.001197 -67.518036 0.001197 342.234741
484 342.234741 -0.000954 0.000238 0.001197 -67.513245 0.001197 342.234741
[R_Toe2_03]
482 420.210846 0.000715 -0.000268 0.008520 74.164474 0.008520 420.210846
483 420.210846 0.000715 -0.000268 0.008514 74.152855 0.008514 420.210846
484 420.210846 0.000715 -0.000268 0.008507 74.141281 0.008507 420.210846
[R_Toe3_02]
482 329.270355 -0.000477 -0.000954 0.001184 -75.175941 0.001184 329.270355
483 329.270355 -0.000477 -0.000954 0.001184 -75.161972 0.001184 329.270355
484 329.270355 -0.000477 -0.000954 0.001184 -75.147980 0.001184 329.270355
[R_Toe3_03]
482 439.137939 0.000238 0.001431 -0.014577 84.863434 -0.011077 439.137939
483 439.137939 0.000238 0.001431 -0.014482 84.825058 -0.010982 439.137939
484 439.137939 0.000238 0.001431 -0.014388 84.786736 -0.010888 439.137939
[Rear_Leg02]
482 1162.777710 -0.029802 0.005960 1.169019 -5.918984 -123.472626 1162.777710
483 1162.777710 -0.029802 0.005960 1.169503 -5.918749 -123.477745 1162.777710
484 1162.777710 -0.029802 0.005960 1.169986 -5.918512 -123.482841 1162.777710
[Rear_Leg03]
482 607.192505 -0.013351 -0.073195 0.006473 -0.002116 64.420837 607.192505
483 607.192505 -0.013351 -0.073195 0.006473 -0.002116 64.422760 607.192505
484 607.192505 -0.013351 -0.073195 0.006473 -0.002116 64.424675 607.192505
[Rear_Leg04]
482 995.874512 -0.020504 -0.011921 -0.040535 -0.015113 58.376514 995.874573
483 995.874512 -0.020504 -0.011921 -0.040536 -0.015112 58.380611 995.874573
484 995.874512 -0.020504 -0.011921 -0.040536 -0.015111 58.384712 995.874573
[Rear_Foot]
482 3096.176270 -0.067472 -0.041425 -136.374939 82.768684 56.336433 3096.176270
483 3096.176270 -0.067472 -0.041425 -136.376312 82.769150 56.334770 3096.176270
484 3096.176270 -0.067472 -0.041425 -136.377640 82.769638 56.333195 3096.176270
[planeAlignerCenter]
482 0.350077 0.966311 -838.790894 0.000009 0.000003 -179.999985 838.791565
483 0.350077 0.966311 -838.790894 0.000009 0.000003 -179.999985 838.791565
484 0.350077 0.966311 -838.790894 0.000009 0.000003 -179.999985 838.791565
[Rear_Toe1_01]
482 0.653352 83.966492 -371.173737 0.287937 41.690323 90.409912 380.553192
483 0.653352 83.966492 -371.173737 0.287924 41.693703 90.409935 380.553192
484 0.653352 83.966492 -371.173737 0.287910 41.697067 90.409950 380.553192
[Rear_Toe2_01]
482 178.200760 -294.826019 -362.060547 -7.215888 34.249699 -66.259956 499.765686
483 178.200760 -294.826019 -362.060547 -7.215591 34.252125 -66.260139 499.765686
484 178.200760 -294.826019 -362.060547 -7.215283 34.254532 -66.260284 499.765686
[Rear_Toe3_01]
482 -153.359680 -308.780914 -362.060852 3.296062 33.365604 -112.554420 499.952881
483 -153.359680 -308.780914 -362.060852 3.295971 33.367947 -112.554214 499.952881
484 -153.359680 -308.780914 -362.060852 3.295883 33.370289 -112.554024 499.952881
[planeLockWeightCenter]
482 -0.000062 0.000238 0.000000 -0.011814 -0.004373 -0.000015 0.000246
483 -0.000062 0.000238 0.000000 -0.011814 -0.004373 -0.000015 0.000246
484 -0.000062 0.000238 0.000000 -0.011814 -0.004373 -0.000015 0.000246
[Rear_Toe1_02]
482 379.707825 0.194073 0.000477 -0.000247 -31.746632 0.006937 379.707855
483 379.707825 0.194073 0.000477 -0.000247 -31.745592 0.006937 379.707855
484 379.707825 0.194073 0.000477 -0.000247 -31.744547 0.006937 379.707855
[Rear_Toe1_03]
482 500.129700 0.165701 0.000119 -0.000062 52.299305 0.007327 500.129761
483 500.129700 0.165701 0.000119 -0.000063 52.293438 0.007327 500.129761
484 500.129700 0.165701 0.000119 -0.000064 52.287590 0.007326 500.129761
[Rear_Toe2_02]
482 340.494507 0.000238 -0.000954 0.001192 -70.039055 0.001192 340.494507
483 340.494507 0.000238 -0.000954 0.001192 -70.036293 0.001192 340.494507
484 340.494507 0.000238 -0.000954 0.001192 -70.033485 0.001192 340.494507
[Rear_Toe2_03]
482 433.103577 0.000000 0.000238 0.006787 70.084656 0.006787 433.103546
483 433.103577 0.000000 0.000238 0.006786 70.080536 0.006786 433.103546
484 433.103577 0.000000 0.000238 0.006784 70.076393 0.006784 433.103546
[Rear_Toe3_02]
482 340.494141 -0.000358 -0.000477 0.008362 -67.465675 -0.009534 340.494171
483 340.494141 -0.000358 -0.000477 0.008361 -67.462784 -0.009533 340.494171
484 340.494141 -0.000358 -0.000477 0.008360 -67.459900 -0.009532 340.494171
[Rear_Toe3_03]
482 433.103577 0.001431 -0.000238 -0.001005 66.237724 -0.004578 433.103546
483 433.103577 0.001431 -0.000238 -0.001004 66.233528 -0.004578 433.103546
484 433.103577 0.001431 -0.000238 -0.001004 66.229309 -0.004577 433.103546
[Back_Bone]
482 1312.175781 -701.934692 0.000954 2.752241 -1.416226 -85.679543 1488.125488
483 1312.175781 -701.934692 0.000954 2.752060 -1.416032 -85.679527 1488.125488
484 1312.175781 -701.934692 0.000954 2.751880 -1.415838 -85.679512 1488.125488
[Head]
482 1406.159424 809.709290 0.001431 -1.600179 2.644626 7.767991 1622.625488
483 1406.159424 809.709290 0.001431 -1.600061 2.644390 7.767995 1622.625488
484 1406.159424 809.709290 0.001431 -1.599944 2.644154 7.768002 1622.625488
[Motor_Bone]
482 1158.364380 -417.834747 0.000477 3.529476 -1.307060 -116.294151 1231.419434
483 1158.364380 -417.834747 0.000477 3.526258 -1.306811 -116.286362 1231.419434
484 1158.364380 -417.834747 0.000477 3.523040 -1.306561 -116.278564 1231.419434
[Ping_Mechanism]
482 1234.130249 -442.247223 -0.822277 0.000103 -0.000053 82.120995 1310.977051
483 1234.120117 -442.251587 -0.844262 0.000103 -0.000053 82.120995 1310.968994
484 1234.109985 -442.255951 -0.866247 0.000103 -0.000053 82.120995 1310.960938
[BN_LookIK]
482 193.241119 1380.371704 -0.002861 0.000000 89.965736 -31.038179 1393.832153
483 193.241119 1380.371704 -0.002861 0.000000 89.965736 -31.038179 1393.832153
484 193.241119 1380.371704 -0.002861 0.000000 89.965736 -31.038179 1393.832153
[bottomMouth]
482 -435.092926 615.759399 -0.000954 -0.000022 0.000016 73.527184 753.966492
483 -435.092926 615.759399 -0.000954 -0.000022 0.000016 73.527184 753.966492
484 -435.092926 615.759399 -0.000954 -0.000022 0.000016 73.527184 753.966492
[L_Mouth01]
482 554.440979 7.658243 838.222046 150.204178 23.759130 109.605339 1005.027161
483 554.440979 7.658243 838.222046 150.204178 23.759130 109.605339 1005.027161
484 554.440979 7.658243 838.222046 150.204178 23.759130 109.605339 1005.027161
[L_mouthFront]
482 551.629089 934.514771 339.150421 0.000081 2.804060 79.119301 1136.941284
483 551.629089 934.514771 339.150421 0.000081 2.804060 79.119301 1136.941284
484 551.629089 934.514771 339.150421 0.000081 2.804060 79.119301 1136.941284
[mouthGun]
482 55.332661 1627.420898 0.000000 0.000023 0.000009 -11.038128 1628.361328
483 55.332661 1627.420898 0.000000 0.000023 0.000009 -11.038128 1628.361328
484 55.332661 1627.420898 0.000000 0.000023 0.000009 -11.038128 1628.361328
[R_Mouth01]
482 554.442383 7.659197 -838.223938 29.795891 -23.759109 109.605331 1005.029541
483 554.442383 7.659197 -838.223938 29.795891 -23.759109 109.605331 1005.029541
484 554.442383 7.659197 -838.223938 29.795891 -23.759109 109.605331 1005.029541
[R_mouthFront]
482 551.629089 934.514282 -339.151367 0.000029 -2.803930 79.119133 1136.941162
483 551.629089 934.514282 -339.151367 0.000029 -2.803930 79.119133 1136.941162
484 551.629089 934.514282 -339.151367 0.000029 -2.803930 79.119133 1136.941162
[TopMouth]
482 461.269867 -56.106091 -0.008583 -0.000059 -0.000268 92.025169 464.669525
483 461.269867 -56.106091 -0.008583 -0.000059 -0.000268 92.025169 464.669525
484 461.269867 -56.106091 -0.008583 -0.000059 -0.000268 92.025169 464.669525
[weapon_bone]
482 -987.239868 1448.372803 0.001431 0.000000 89.965736 -31.038221 1752.833740
483 -987.239868 1448.372803 0.001431 0.000000 89.965736 -31.038221 1752.833740
484 -987.239868 1448.372803 0.001431 0.000000 89.965736 -31.038221 1752.833740
